<mxfile host="app.diagrams.net" modified="2024-07-09T03:41:46.450Z" agent="Mozilla/5.0 (Macintosh; Intel Mac OS X 10_15_7) AppleWebKit/537.36 (KHTML, like Gecko) Chrome/125.0.0.0 Safari/537.36" etag="wa9txUQE0ulVL5C4iPAz" version="24.6.4" type="github">
  <diagram name="第 1 页" id="gLtDsjojduoWHgA0b1-9">
    <mxGraphModel dx="1570" dy="936" grid="1" gridSize="10" guides="1" tooltips="1" connect="1" arrows="1" fold="1" page="1" pageScale="1" pageWidth="827" pageHeight="1169" math="0" shadow="0">
      <root>
        <mxCell id="0" />
        <mxCell id="1" parent="0" />
        <mxCell id="_nZeek06gr2AupCXE-9A-9" style="edgeStyle=orthogonalEdgeStyle;rounded=0;orthogonalLoop=1;jettySize=auto;html=1;entryX=0;entryY=0.5;entryDx=0;entryDy=0;" edge="1" parent="1" source="_nZeek06gr2AupCXE-9A-1" target="_nZeek06gr2AupCXE-9A-8">
          <mxGeometry relative="1" as="geometry" />
        </mxCell>
        <mxCell id="_nZeek06gr2AupCXE-9A-1" value="bridge-center&lt;div&gt;更新&lt;/div&gt;" style="rounded=0;whiteSpace=wrap;html=1;" vertex="1" parent="1">
          <mxGeometry x="80" y="260" width="120" height="60" as="geometry" />
        </mxCell>
        <mxCell id="_nZeek06gr2AupCXE-9A-6" style="edgeStyle=orthogonalEdgeStyle;rounded=0;orthogonalLoop=1;jettySize=auto;html=1;entryX=0;entryY=0.5;entryDx=0;entryDy=0;" edge="1" parent="1" source="_nZeek06gr2AupCXE-9A-2" target="_nZeek06gr2AupCXE-9A-3">
          <mxGeometry relative="1" as="geometry" />
        </mxCell>
        <mxCell id="_nZeek06gr2AupCXE-9A-2" value="自动拉取最新的&lt;div&gt;brigde信息&lt;/div&gt;" style="rounded=0;whiteSpace=wrap;html=1;" vertex="1" parent="1">
          <mxGeometry x="400" y="260" width="120" height="60" as="geometry" />
        </mxCell>
        <mxCell id="_nZeek06gr2AupCXE-9A-7" style="edgeStyle=orthogonalEdgeStyle;rounded=0;orthogonalLoop=1;jettySize=auto;html=1;entryX=0;entryY=0.5;entryDx=0;entryDy=0;" edge="1" parent="1" source="_nZeek06gr2AupCXE-9A-3" target="_nZeek06gr2AupCXE-9A-4">
          <mxGeometry relative="1" as="geometry" />
        </mxCell>
        <mxCell id="_nZeek06gr2AupCXE-9A-3" value="build" style="rounded=0;whiteSpace=wrap;html=1;" vertex="1" parent="1">
          <mxGeometry x="590" y="260" width="120" height="60" as="geometry" />
        </mxCell>
        <mxCell id="_nZeek06gr2AupCXE-9A-4" value="publish" style="rounded=0;whiteSpace=wrap;html=1;" vertex="1" parent="1">
          <mxGeometry x="780" y="260" width="120" height="60" as="geometry" />
        </mxCell>
        <mxCell id="_nZeek06gr2AupCXE-9A-10" style="edgeStyle=orthogonalEdgeStyle;rounded=0;orthogonalLoop=1;jettySize=auto;html=1;entryX=0;entryY=0.5;entryDx=0;entryDy=0;" edge="1" parent="1" source="_nZeek06gr2AupCXE-9A-8" target="_nZeek06gr2AupCXE-9A-2">
          <mxGeometry relative="1" as="geometry" />
        </mxCell>
        <mxCell id="_nZeek06gr2AupCXE-9A-12" style="edgeStyle=orthogonalEdgeStyle;rounded=0;orthogonalLoop=1;jettySize=auto;html=1;entryX=0.5;entryY=1;entryDx=0;entryDy=0;" edge="1" parent="1" source="_nZeek06gr2AupCXE-9A-8" target="_nZeek06gr2AupCXE-9A-1">
          <mxGeometry relative="1" as="geometry">
            <Array as="points">
              <mxPoint x="300" y="350" />
              <mxPoint x="140" y="350" />
            </Array>
          </mxGeometry>
        </mxCell>
        <mxCell id="_nZeek06gr2AupCXE-9A-8" value="review" style="rhombus;whiteSpace=wrap;html=1;" vertex="1" parent="1">
          <mxGeometry x="260" y="250" width="80" height="80" as="geometry" />
        </mxCell>
        <mxCell id="_nZeek06gr2AupCXE-9A-11" value="通过" style="text;html=1;align=center;verticalAlign=middle;resizable=0;points=[];autosize=1;strokeColor=none;fillColor=none;" vertex="1" parent="1">
          <mxGeometry x="340" y="260" width="50" height="30" as="geometry" />
        </mxCell>
        <mxCell id="_nZeek06gr2AupCXE-9A-13" value="不通过，打回" style="text;html=1;align=center;verticalAlign=middle;resizable=0;points=[];autosize=1;strokeColor=none;fillColor=none;" vertex="1" parent="1">
          <mxGeometry x="166" y="352" width="100" height="30" as="geometry" />
        </mxCell>
      </root>
    </mxGraphModel>
  </diagram>
</mxfile>
